<svg width="108" height="36" viewBox="0 0 108 36" fill="none" xmlns="http://www.w3.org/2000/svg">
<rect x="0.25" y="0.25" width="107.5" height="35.5" rx="4.75" stroke="#FF8000" stroke-width="0.5"/>
<path d="M23.38 10.96V13.7H17.66V16.66H21.94V19.32H17.66V25H14.24V10.96H23.38ZM31.7775 25L29.6375 21.9L27.8375 25H24.1375L27.8175 19.3L24.0375 13.84H27.8775L30.0175 16.92L31.8175 13.84H35.5175L31.7775 19.46L35.6175 25H31.7775Z" fill="#FFD000"/>
<path d="M45.78 11.02V12.18H41.9V25H40.5V12.18H36.6V11.02H45.78ZM49.3906 16.02C49.6973 15.34 50.164 14.8133 50.7906 14.44C51.4306 14.0667 52.2106 13.88 53.1306 13.88V15.34H52.7506C51.7373 15.34 50.924 15.6133 50.3106 16.16C49.6973 16.7067 49.3906 17.62 49.3906 18.9V25H47.9906V14.08H49.3906V16.02ZM54.5967 19.52C54.5967 18.4 54.8167 17.42 55.2567 16.58C55.7101 15.7267 56.3301 15.0733 57.1167 14.62C57.9167 14.1533 58.8167 13.92 59.8167 13.92C60.8567 13.92 61.7501 14.16 62.4967 14.64C63.2567 15.12 63.8034 15.7333 64.1367 16.48V14.08H65.5367V25H64.1367V22.58C63.7901 23.3267 63.2367 23.9467 62.4767 24.44C61.7301 24.92 60.8367 25.16 59.7967 25.16C58.8101 25.16 57.9167 24.9267 57.1167 24.46C56.3301 23.9933 55.7101 23.3333 55.2567 22.48C54.8167 21.6267 54.5967 20.64 54.5967 19.52ZM64.1367 19.54C64.1367 18.66 63.9567 17.8867 63.5967 17.22C63.2367 16.5533 62.7434 16.04 62.1167 15.68C61.5034 15.32 60.8234 15.14 60.0767 15.14C59.3034 15.14 58.6101 15.3133 57.9967 15.66C57.3834 16.0067 56.8967 16.5133 56.5367 17.18C56.1901 17.8333 56.0167 18.6133 56.0167 19.52C56.0167 20.4133 56.1901 21.2 56.5367 21.88C56.8967 22.5467 57.3834 23.06 57.9967 23.42C58.6101 23.7667 59.3034 23.94 60.0767 23.94C60.8234 23.94 61.5034 23.76 62.1167 23.4C62.7434 23.04 63.2367 22.5267 63.5967 21.86C63.9567 21.1933 64.1367 20.42 64.1367 19.54ZM68.0928 19.52C68.0928 18.4 68.3195 17.42 68.7728 16.58C69.2261 15.7267 69.8461 15.0733 70.6328 14.62C71.4328 14.1533 72.3328 13.92 73.3328 13.92C74.2928 13.92 75.1595 14.1533 75.9328 14.62C76.7061 15.0867 77.2728 15.6933 77.6328 16.44V10.2H79.0328V25H77.6328V22.56C77.2995 23.32 76.7528 23.9467 75.9928 24.44C75.2328 24.92 74.3395 25.16 73.3128 25.16C72.3128 25.16 71.4128 24.9267 70.6128 24.46C69.8261 23.9933 69.2061 23.3333 68.7528 22.48C68.3128 21.6267 68.0928 20.64 68.0928 19.52ZM77.6328 19.54C77.6328 18.66 77.4528 17.8867 77.0928 17.22C76.7328 16.5533 76.2395 16.04 75.6128 15.68C74.9995 15.32 74.3195 15.14 73.5728 15.14C72.7995 15.14 72.1061 15.3133 71.4928 15.66C70.8795 16.0067 70.3928 16.5133 70.0328 17.18C69.6861 17.8333 69.5128 18.6133 69.5128 19.52C69.5128 20.4133 69.6861 21.2 70.0328 21.88C70.3928 22.5467 70.8795 23.06 71.4928 23.42C72.1061 23.7667 72.7995 23.94 73.5728 23.94C74.3195 23.94 74.9995 23.76 75.6128 23.4C76.2395 23.04 76.7328 22.5267 77.0928 21.86C77.4528 21.1933 77.6328 20.42 77.6328 19.54ZM87.0089 25.16C85.9822 25.16 85.0556 24.9333 84.2289 24.48C83.4156 24.0133 82.7689 23.36 82.2889 22.52C81.8222 21.6667 81.5889 20.6733 81.5889 19.54C81.5889 18.4067 81.8289 17.42 82.3089 16.58C82.7889 15.7267 83.4422 15.0733 84.2689 14.62C85.0956 14.1533 86.0222 13.92 87.0489 13.92C88.0756 13.92 89.0022 14.1533 89.8289 14.62C90.6689 15.0733 91.3222 15.7267 91.7889 16.58C92.2689 17.42 92.5089 18.4067 92.5089 19.54C92.5089 20.66 92.2689 21.6467 91.7889 22.5C91.3089 23.3533 90.6489 24.0133 89.8089 24.48C88.9689 24.9333 88.0356 25.16 87.0089 25.16ZM87.0089 23.94C87.7289 23.94 88.3956 23.78 89.0089 23.46C89.6222 23.1267 90.1156 22.6333 90.4889 21.98C90.8756 21.3133 91.0689 20.5 91.0689 19.54C91.0689 18.58 90.8822 17.7733 90.5089 17.12C90.1356 16.4533 89.6422 15.96 89.0289 15.64C88.4156 15.3067 87.7489 15.14 87.0289 15.14C86.3089 15.14 85.6422 15.3067 85.0289 15.64C84.4156 15.96 83.9222 16.4533 83.5489 17.12C83.1889 17.7733 83.0089 18.58 83.0089 19.54C83.0089 20.5 83.1889 21.3133 83.5489 21.98C83.9222 22.6333 84.4089 23.1267 85.0089 23.46C85.6222 23.78 86.2889 23.94 87.0089 23.94Z" fill="white"/>
</svg>
