<svg width="44" height="48" viewBox="0 0 44 48" fill="none" xmlns="http://www.w3.org/2000/svg">
<path fill-rule="evenodd" clip-rule="evenodd" d="M16.9193 1.36136C20.0632 -0.453788 23.9368 -0.453788 27.0807 1.36136L38.9193 8.19641C42.0632 10.0116 44 13.3661 44 16.9964V30.6665C44 34.2969 42.0632 37.6514 38.9193 39.4665L27.0807 46.3015C23.9368 48.1167 20.0632 48.1167 16.9193 46.3015L5.08068 39.4665C1.93674 37.6514 0 34.2969 0 30.6665V16.9964C0 13.3661 1.93674 10.0116 5.08068 8.19641L16.9193 1.36136Z" fill="#178CFF"/>
<path d="M28.1319 28.1507C28.8076 28.6298 28.9747 29.577 28.3904 30.164C27.4252 31.1337 26.247 31.8759 24.9412 32.3265C23.1604 32.941 21.2317 32.9823 19.4262 32.4445C17.6207 31.9067 16.029 30.8169 14.8746 29.3281C13.7202 27.8393 13.0612 26.0262 12.9901 24.1437C12.9189 22.2611 13.4393 20.4035 14.478 18.8319C15.5168 17.2602 17.0217 16.0534 18.7816 15.3809C20.5414 14.7084 22.4676 14.604 24.2898 15.0825C25.6258 15.4332 26.8566 16.0844 27.8922 16.9785C28.5192 17.5198 28.424 18.4769 27.7864 19.0056V19.0056C27.1488 19.5342 26.211 19.4264 25.5413 18.9389C24.9391 18.5004 24.257 18.175 23.528 17.9836C22.3121 17.6644 21.0266 17.734 19.8522 18.1828C18.6779 18.6315 17.6736 19.4369 16.9804 20.4857C16.2872 21.5345 15.94 22.7741 15.9874 24.0304C16.0349 25.2867 16.4747 26.4966 17.245 27.4901C18.0154 28.4837 19.0776 29.2109 20.2824 29.5698C21.4873 29.9287 22.7744 29.9012 23.9628 29.4911C24.6752 29.2452 25.3308 28.8693 25.8983 28.3866C26.5292 27.85 27.4562 27.6717 28.1319 28.1507V28.1507Z" fill="white"/>
</svg>
