<svg width="16" height="19" viewBox="0 0 16 19" fill="none" xmlns="http://www.w3.org/2000/svg">
<path fill-rule="evenodd" clip-rule="evenodd" d="M0 6.67472L6.88026 10.647C6.95435 10.6898 7.03203 10.7207 7.11111 10.7403V18.4444L0.490701 14.5265C0.186551 14.3465 0 14.0193 0 13.6659V6.67472ZM16 6.56911V13.6659C16 14.0193 15.8134 14.3465 15.5093 14.5265L8.88889 18.4444V10.6728C8.90502 10.6648 8.92101 10.6562 8.93683 10.647L16 6.56911Z" fill="#BBB5D1"/>
<path opacity="0.3" fill-rule="evenodd" clip-rule="evenodd" d="M0.216118 4.74669C0.300158 4.64057 0.406232 4.55087 0.529901 4.48501L7.5299 0.756653C7.82376 0.600138 8.17624 0.600138 8.4701 0.756653L15.4701 4.48501C15.5654 4.53578 15.6503 4.60071 15.7227 4.67642L8.04794 9.10744C7.99748 9.13657 7.95095 9.16991 7.90855 9.20675C7.86614 9.16991 7.81962 9.13657 7.76915 9.10744L0.216118 4.74669Z" fill="#BBB5D1"/>
</svg>
