<svg width="21" height="21" viewBox="0 0 21 21" fill="none" xmlns="http://www.w3.org/2000/svg">
<path d="M12 7.99899C11.4477 7.99899 11 8.44671 11 8.99899C11 9.55128 11.4477 9.99899 12 9.99899C12.5523 9.99899 13 9.55128 13 8.99899C13 8.44671 12.5523 7.99899 12 7.99899Z" fill="#BBB5D1"/>
<path d="M0.586 18.999L2 20.413L6.207 16.206L9 18.999L9 11.999H2L4.793 14.792L0.586 18.999Z" fill="#26A69A"/>
<path d="M15 8.99899C15 10.653 13.654 11.999 12 11.999V13.999C14.757 13.999 17 11.756 17 8.99899C17 6.24199 14.757 3.99899 12 3.99899C9.243 3.99899 7 6.24199 7 8.99899H9C9 7.34499 10.346 5.99899 12 5.99899C13.654 5.99899 15 7.34399 15 8.99899V8.99899Z" fill="#BBB5D1"/>
<path d="M12 1.99899C15.859 1.99899 19 5.13899 19 8.99899C19 12.859 15.859 15.999 12 15.999V17.999C16.963 17.999 21 13.962 21 8.99899C21 4.03599 16.963 -0.00100708 12 -0.00100708C7.037 -0.00100708 3 4.03599 3 8.99899H5C5 5.13799 8.141 1.99899 12 1.99899Z" fill="#BBB5D1"/>
</svg>
