<svg width="24" height="24" viewBox="0 0 24 24" fill="none" xmlns="http://www.w3.org/2000/svg">
<path d="M10.9472 17C11.2379 17 11.4735 16.7644 11.4735 16.4737C11.4735 16.183 11.2379 15.9474 10.9472 15.9474C10.6565 15.9474 10.4209 16.183 10.4209 16.4737C10.4209 16.7644 10.6565 17 10.9472 17Z" stroke="#178CFF" stroke-width="2" stroke-linecap="round" stroke-linejoin="round"/>
<path d="M15.1579 17C15.4486 17 15.6842 16.7644 15.6842 16.4737C15.6842 16.183 15.4486 15.9474 15.1579 15.9474C14.8672 15.9474 14.6316 16.183 14.6316 16.4737C14.6316 16.7644 14.8672 17 15.1579 17Z" stroke="#178CFF" stroke-width="2" stroke-linecap="round" stroke-linejoin="round"/>
<path d="M7 7H8.57895L10 13.5263C10.0492 13.7677 10.1815 13.9841 10.3738 14.1379C10.5662 14.2918 10.8064 14.3734 11.0526 14.3684H15.1053C15.3515 14.3734 15.5917 14.2918 15.7841 14.1379C15.9764 13.9841 16.1087 13.7677 16.1579 13.5263L17 9.10526H9.42105" stroke="#178CFF" stroke-width="2" stroke-linecap="round" stroke-linejoin="round"/>
<rect width="24" height="24" rx="12" fill="#1790FF" fill-opacity="0.3"/>
</svg>
