<svg width="18" height="16" viewBox="0 0 18 16" fill="none" xmlns="http://www.w3.org/2000/svg">
<path opacity="0.3" d="M13 1.5C13 0.671573 12.3284 0 11.5 0C10.6716 0 10 0.671573 10 1.5V14.5C10 15.3284 10.6716 16 11.5 16C12.3284 16 13 15.3284 13 14.5V1.5Z" fill="#BBB5D1"/>
<path d="M8 6.5C8 5.67157 7.32843 5 6.5 5C5.67157 5 5 5.67157 5 6.5V14.5C5 15.3284 5.67157 16 6.5 16C7.32843 16 8 15.3284 8 14.5V6.5Z" fill="#BBB5D1"/>
<path d="M18 8.5C18 7.67157 17.3284 7 16.5 7C15.6716 7 15 7.67157 15 8.5V14.5C15 15.3284 15.6716 16 16.5 16C17.3284 16 18 15.3284 18 14.5V8.5Z" fill="#BBB5D1"/>
<path d="M3 10.5C3 9.67157 2.32843 9 1.5 9C0.671573 9 0 9.67157 0 10.5V14.5C0 15.3284 0.671573 16 1.5 16C2.32843 16 3 15.3284 3 14.5V10.5Z" fill="#BBB5D1"/>
</svg>
