<svg width="20" height="20" viewBox="0 0 20 20" fill="none" xmlns="http://www.w3.org/2000/svg">
<path opacity="0.3" d="M10 20C15.5228 20 20 15.5228 20 10C20 4.47715 15.5228 0 10 0C4.47715 0 0 4.47715 0 10C0 15.5228 4.47715 20 10 20Z" fill="#26A69A"/>
<path d="M14.7689 5.81769C15.1458 5.41393 15.7786 5.39211 16.1823 5.76895C16.5861 6.14578 16.6079 6.77857 16.2311 7.18232L9.23106 14.6823C8.86545 15.074 8.25605 15.108 7.84921 14.7593L4.34921 11.7593C3.92989 11.3998 3.88132 10.7685 4.24075 10.3492C4.60017 9.92989 5.23147 9.88133 5.65079 10.2407L8.423 12.6169L14.7689 5.81769Z" fill="#26A69A"/>
</svg>
