<svg width="20" height="20" viewBox="0 0 20 20" fill="none" xmlns="http://www.w3.org/2000/svg">
<path opacity="0.3" d="M10 20C15.5228 20 20 15.5228 20 10C20 4.47715 15.5228 0 10 0C4.47715 0 0 4.47715 0 10C0 15.5228 4.47715 20 10 20Z" fill="#EF5350"/>
<path fill-rule="evenodd" clip-rule="evenodd" d="M10.0355 8.62132L12.864 5.79289C13.2545 5.40237 13.8877 5.40237 14.2782 5.79289C14.6687 6.18342 14.6687 6.81658 14.2782 7.20711L11.4497 10.0355L14.2782 12.864C14.6687 13.2545 14.6687 13.8877 14.2782 14.2782C13.8877 14.6687 13.2545 14.6687 12.864 14.2782L10.0355 11.4497L7.20711 14.2782C6.81658 14.6687 6.18342 14.6687 5.79289 14.2782C5.40237 13.8877 5.40237 13.2545 5.79289 12.864L8.62132 10.0355L5.79289 7.20711C5.40237 6.81658 5.40237 6.18342 5.79289 5.79289C6.18342 5.40237 6.81658 5.40237 7.20711 5.79289L10.0355 8.62132Z" fill="#EF5350"/>
</svg>
