<svg width="22" height="16" viewBox="0 0 22 16" fill="none" xmlns="http://www.w3.org/2000/svg">
<path d="M16.2718 4.68536C15.8933 4.28319 15.9125 3.65031 16.3146 3.2718C16.7168 2.89328 17.3497 2.91246 17.7282 3.31463L21.7282 7.56463C22.0906 7.94968 22.0906 8.55031 21.7282 8.93536L17.7282 13.1854C17.3497 13.5875 16.7168 13.6067 16.3146 13.2282C15.9125 12.8497 15.8933 12.2168 16.2718 11.8146L19.6268 8.25L16.2718 4.68536ZM5.7282 4.68536L2.37325 8.25L5.7282 11.8146C6.10672 12.2168 6.08754 12.8497 5.68536 13.2282C5.28319 13.6067 4.65032 13.5875 4.2718 13.1854L0.2718 8.93536C-0.0906 8.55031 -0.0906 7.94968 0.2718 7.56463L4.2718 3.31463C4.65032 2.91246 5.28319 2.89328 5.68536 3.2718C6.08754 3.65031 6.10672 4.28319 5.7282 4.68536Z" fill="#BBB5D1"/>
<path opacity="0.3" d="M13.7777 1.49733C13.9206 0.963869 13.604 0.415532 13.0706 0.27259C12.5371 0.129648 11.9888 0.446231 11.8458 0.979697L8.22234 14.5027C8.0794 15.0361 8.39598 15.5845 8.92945 15.7274C9.46292 15.8703 10.0113 15.5538 10.1542 15.0203L13.7777 1.49733Z" fill="#BBB5D1"/>
</svg>
