<svg width="18" height="20" viewBox="0 0 18 20" fill="none" xmlns="http://www.w3.org/2000/svg">
<path d="M9.9336 14.0725L16.36 8.95649L16.5182 8.83125C17.1676 8.31697 17.2772 7.37356 16.7629 6.7241C16.6917 6.63417 16.6104 6.5527 16.5206 6.4813L9.93368 1.24258C9.38711 0.807892 8.61287 0.807892 8.06631 1.24258L1.47482 6.4849C0.826448 7.00056 0.718864 7.94419 1.23452 8.59256C1.305 8.68117 1.38527 8.76151 1.47382 8.83206L1.62999 8.95649L8.0659 14.0731C8.61267 14.5078 9.38711 14.5075 9.9336 14.0725Z" fill="#BBB5D1"/>
<path opacity="0.3" fill-rule="evenodd" clip-rule="evenodd" d="M8.05635 16.6707L2.33592 12.1229C1.94553 11.8126 1.37746 11.8774 1.0671 12.2678C1.06471 12.2708 1.06234 12.2738 1.05999 12.2769C0.752567 12.6739 0.825163 13.2449 1.22214 13.5523C1.22358 13.5534 1.22502 13.5545 1.22647 13.5557L8.08727 18.8031C8.62507 19.2145 9.37175 19.2145 9.90962 18.8033L16.7678 13.5598C17.1693 13.2528 17.246 12.6784 16.9389 12.2769C16.9376 12.2752 16.9363 12.2735 16.935 12.2718C16.6267 11.8744 16.0546 11.8022 15.6572 12.1105C15.6543 12.1127 15.6515 12.115 15.6486 12.1173L9.9235 16.6705C9.37702 17.1052 8.60291 17.1052 8.05635 16.6707Z" fill="#BBB5D1"/>
</svg>
