<svg width="16" height="16" viewBox="0 0 16 16" fill="none" xmlns="http://www.w3.org/2000/svg">
<path d="M5.5 0H1.5C0.671573 0 0 0.671573 0 1.5V5.5C0 6.32843 0.671573 7 1.5 7H5.5C6.32843 7 7 6.32843 7 5.5V1.5C7 0.671573 6.32843 0 5.5 0Z" fill="#BBB5D1"/>
<path opacity="0.3" fill-rule="evenodd" clip-rule="evenodd" d="M1.5 9H5.5C6.32843 9 7 9.67157 7 10.5V14.5C7 15.3284 6.32843 16 5.5 16H1.5C0.671573 16 0 15.3284 0 14.5V10.5C0 9.67157 0.671573 9 1.5 9ZM10.5 0H14.5C15.3284 0 16 0.671573 16 1.5V5.5C16 6.32843 15.3284 7 14.5 7H10.5C9.67157 7 9 6.32843 9 5.5V1.5C9 0.671573 9.67157 0 10.5 0ZM10.5 9H14.5C15.3284 9 16 9.67157 16 10.5V14.5C16 15.3284 15.3284 16 14.5 16H10.5C9.67157 16 9 15.3284 9 14.5V10.5C9 9.67157 9.67157 9 10.5 9Z" fill="#BBB5D1"/>
</svg>
