<svg width="20" height="21" viewBox="0 0 20 21" fill="none" xmlns="http://www.w3.org/2000/svg">
<path opacity="0.3" d="M0 12C0 11.5 0.5 11 1 11C1.5 11 2 11.5 2 12C2 12.3333 2 14 2 17C2 18.1046 2.89543 19 4 19H16C17.1046 19 18 18.1046 18 17V12C18 11.4477 18.4477 11 19 11C19.5523 11 20 11.4477 20 12V17C20 19.2091 18.2091 21 16 21H4C1.79086 21 0 19.2091 0 17C0 14 0 12.3333 0 12Z" fill="white"/>
<path opacity="0.3" d="M9 13C9 13.5523 9.44772 14 10 14C10.5523 14 11 13.5523 11 13L11 1C11 0.447715 10.5523 0 10 0C9.44772 0 9 0.447715 9 1L9 13Z" fill="white"/>
<path d="M14.2929 8.29289C14.6834 7.90237 15.3166 7.90237 15.7071 8.29289C16.0976 8.68342 16.0976 9.31658 15.7071 9.70711L10.7071 14.7071C10.331 15.0832 9.72636 15.0991 9.33104 14.7433L4.33104 10.2433C3.92053 9.87383 3.88725 9.24154 4.25671 8.83103C4.62617 8.42052 5.25845 8.38725 5.66896 8.7567L9.96376 12.622L14.2929 8.29289Z" fill="white"/>
</svg>
