<svg width="24" height="24" viewBox="0 0 24 24" fill="none" xmlns="http://www.w3.org/2000/svg">
<rect width="24" height="24" rx="12" fill="#EF5350" fill-opacity="0.3"/>
<path d="M11 6.85714C11 6.38376 11.4477 6 12 6C12.5523 6 13 6.38376 13 6.85714L13 17.1429C13 17.6162 12.5523 18 12 18C11.4477 18 11 17.6162 11 17.1429L11 6.85714Z" fill="#EF5350"/>
<path d="M16.5368 11.2563C16.8715 10.9146 17.4142 10.9146 17.7489 11.2563C18.0837 11.598 18.0837 12.152 17.7489 12.4937L12.6061 17.7437C12.2816 18.075 11.7591 18.0866 11.4208 17.77L6.27795 12.9575C5.929 12.631 5.90542 12.0775 6.2253 11.7212C6.54518 11.365 7.08738 11.3409 7.43634 11.6675L11.9742 15.9139L16.5368 11.2563Z" fill="#EF5350"/>
</svg>
