<svg width="100" height="100" viewBox="0 0 100 100" fill="none" xmlns="http://www.w3.org/2000/svg">
<path d="M22.1621 60.4313L18.6813 73.4258L5.95879 73.695C2.15664 66.6428 0 58.5742 0 50C0 41.7088 2.01641 33.8901 5.59063 27.0055H5.59336L16.9199 29.0821L21.8816 40.3407C20.8432 43.3682 20.2772 46.6182 20.2772 50C20.2775 53.6703 20.9424 57.1869 22.1621 60.4313Z" fill="#FBBB00"/>
<path d="M99.1264 40.6594C99.7006 43.684 100 46.8077 100 50.0001C100 53.5797 99.6237 57.0715 98.9067 60.4397C96.4727 71.9012 90.1127 81.9094 81.3024 88.9919L81.2996 88.9891L67.0332 88.2612L65.0141 75.6567C70.8602 72.2282 75.4289 66.8627 77.8356 60.4397H51.0992V40.6594H78.2256H99.1264Z" fill="#518EF8"/>
<path d="M81.2994 88.989L81.3021 88.9918C72.7336 95.8791 61.8488 100 50 100C30.9587 100 14.4039 89.3572 5.95874 73.6951L22.1621 60.4314C26.3845 71.7005 37.2554 79.7226 50 79.7226C55.4779 79.7226 60.6099 78.2418 65.0136 75.6566L81.2994 88.989Z" fill="#28B446"/>
<path d="M81.9148 11.5109L65.717 24.7719C61.1593 21.923 55.7718 20.2773 50 20.2773C36.9669 20.2773 25.8927 28.6674 21.8818 40.3406L5.59331 27.0055H5.59058C13.9121 10.9615 30.6757 0 50 0C62.1318 0 73.2554 4.32148 81.9148 11.5109Z" fill="#F14336"/>
</svg>
