<svg width="16" height="13" viewBox="0 0 16 13" fill="none" xmlns="http://www.w3.org/2000/svg">
<path d="M14.5 0H1.5C0.671573 0 0 0.671573 0 1.5C0 2.32843 0.671573 3 1.5 3H14.5C15.3284 3 16 2.32843 16 1.5C16 0.671573 15.3284 0 14.5 0Z" fill="#BBB5D1"/>
<path opacity="0.3" fill-rule="evenodd" clip-rule="evenodd" d="M1.5 10H14.5C15.3284 10 16 10.6716 16 11.5C16 12.3284 15.3284 13 14.5 13H1.5C0.671573 13 0 12.3284 0 11.5C0 10.6716 0.671573 10 1.5 10ZM1.5 5H8.5C9.32843 5 10 5.67157 10 6.5C10 7.32843 9.32843 8 8.5 8H1.5C0.671573 8 0 7.32843 0 6.5C0 5.67157 0.671573 5 1.5 5Z" fill="#BBB5D1"/>
</svg>
