<svg width="17" height="17" viewBox="0 0 17 17" fill="none" xmlns="http://www.w3.org/2000/svg">
<path fill-rule="evenodd" clip-rule="evenodd" d="M9.20703 1C9.07217 1.47683 9 1.97999 9 2.5C9 5.53757 11.4624 8 14.5 8C15.02 8 15.5232 7.92783 16 7.79297V14C16 15.6569 14.6569 17 13 17H3C1.34315 17 0 15.6569 0 14V4C0 2.34315 1.34315 1 3 1H9.20703Z" fill="#BBB5D1"/>
<path opacity="0.3" d="M14.5 5C15.8807 5 17 3.88071 17 2.5C17 1.11929 15.8807 0 14.5 0C13.1193 0 12 1.11929 12 2.5C12 3.88071 13.1193 5 14.5 5Z" fill="#BBB5D1"/>
</svg>
