<svg width="16" height="17" viewBox="0 0 16 17" fill="none" xmlns="http://www.w3.org/2000/svg">
<path d="M3.62302 2.30262C4.08509 2.00011 4.7049 2.12945 5.00742 2.59152C5.30993 3.05358 5.18059 3.67339 4.71852 3.97591C3.03469 5.07832 2 6.95031 2 9C2 12.3137 4.68629 15 8 15C11.3137 15 14 12.3137 14 9C14 6.9955 13.0108 5.15969 11.3876 4.04699C10.932 3.73473 10.8159 3.11231 11.1281 2.65677C11.4404 2.20124 12.0628 2.08509 12.5184 2.39735C14.68 3.87911 16 6.32886 16 9C16 13.4183 12.4183 17 8 17C3.58172 17 0 13.4183 0 9C0 6.26853 1.38057 3.77076 3.62302 2.30262Z" fill="#EF5350"/>
<path opacity="0.3" d="M9 1C9 0.447715 8.55228 0 8 0C7.44772 0 7 0.447715 7 1V9C7 9.55229 7.44772 10 8 10C8.55228 10 9 9.55229 9 9V1Z" fill="#EF5350"/>
</svg>
