<svg width="21" height="21" viewBox="0 0 21 21" fill="none" xmlns="http://www.w3.org/2000/svg">
<path d="M9 13.001C9.55228 13.001 10 12.5533 10 12.001C10 11.4487 9.55228 11.001 9 11.001C8.44772 11.001 8 11.4487 8 12.001C8 12.5533 8.44772 13.001 9 13.001Z" fill="#BBB5D1"/>
<path d="M20.414 2.00101L19 0.587006L14.793 4.79401L12 2.00101V9.00101H19L16.207 6.20801L20.414 2.00101Z" fill="#EF5350"/>
<path d="M6 12.001C6 10.347 7.346 9.00101 9 9.00101V7.00101C6.243 7.00101 4 9.24401 4 12.001C4 14.758 6.243 17.001 9 17.001C11.757 17.001 14 14.758 14 12.001H12C12 13.655 10.654 15.001 9 15.001C7.346 15.001 6 13.656 6 12.001V12.001Z" fill="#BBB5D1"/>
<path d="M9 19.001C5.141 19.001 2 15.861 2 12.001C2 8.14101 5.141 5.00101 9 5.00101V3.00101C4.037 3.00101 0 7.03801 0 12.001C0 16.964 4.037 21.001 9 21.001C13.963 21.001 18 16.964 18 12.001H16C16 15.862 12.859 19.001 9 19.001Z" fill="#BBB5D1"/>
</svg>
