<svg width="18" height="18" viewBox="0 0 18 18" fill="none" xmlns="http://www.w3.org/2000/svg">
<path opacity="0.3" d="M15.6225 6.75H15.75C16.9926 6.75 18 7.75736 18 9C18 10.2426 16.9926 11.25 15.75 11.25L15.6855 11.25C15.4912 11.2508 15.3159 11.3669 15.2394 11.5454C15.1557 11.7351 15.1943 11.9481 15.3278 12.0847L15.3725 12.1294C15.795 12.5514 16.0324 13.1241 16.0324 13.7213C16.0324 14.3184 15.795 14.8911 15.3731 15.3125C14.9511 15.735 14.3784 15.9724 13.7812 15.9724C13.1841 15.9724 12.6114 15.735 12.1897 15.3128L12.1506 15.2736C12.0081 15.1343 11.7951 15.0957 11.6054 15.1794C11.4269 15.2559 11.3108 15.4312 11.31 15.6225V15.75C11.31 16.9926 10.3026 18 9.06 18C7.81736 18 6.81 16.9926 6.81 15.75C6.80552 15.4999 6.67899 15.323 6.44718 15.2361C6.26485 15.1557 6.05191 15.1943 5.91533 15.3278L5.87062 15.3725C5.4486 15.795 4.87592 16.0324 4.27875 16.0324C3.68158 16.0324 3.1089 15.795 2.68747 15.3731C2.26497 14.9511 2.02757 14.3784 2.02757 13.7812C2.02757 13.1841 2.26497 12.6114 2.68717 12.1897L2.72635 12.1506C2.86571 12.0081 2.90432 11.7951 2.82065 11.6054C2.7441 11.4269 2.56881 11.3108 2.3775 11.31H2.25C1.00736 11.31 0 10.3026 0 9.06C0 7.81736 1.00736 6.81 2.25 6.81C2.50008 6.80552 2.677 6.67899 2.76385 6.44718C2.84432 6.26485 2.80571 6.05191 2.67217 5.91533L2.62746 5.87062C2.20497 5.4486 1.96757 4.87592 1.96757 4.27875C1.96757 3.68158 2.20497 3.1089 2.62687 2.68747C3.0489 2.26497 3.62158 2.02757 4.21875 2.02757C4.81592 2.02757 5.3886 2.26497 5.81033 2.68717L5.84945 2.72635C5.99191 2.86571 6.20485 2.90432 6.38718 2.82385L6.49485 2.80115C6.65041 2.71689 6.74929 2.55401 6.75 2.3775V2.25C6.75 1.00736 7.75736 0 9 0C10.2426 0 11.25 1.00736 11.25 2.25L11.25 2.31451C11.2508 2.50881 11.3669 2.6841 11.5528 2.76385C11.7351 2.84432 11.9481 2.80571 12.0847 2.67217L12.1294 2.62746C12.5514 2.20497 13.1241 1.96757 13.7213 1.96757C14.3184 1.96757 14.8911 2.20497 15.3125 2.62687C15.735 3.0489 15.9724 3.62158 15.9724 4.21875C15.9724 4.81592 15.735 5.3886 15.3128 5.81033L15.2736 5.84945C15.1343 5.99191 15.0957 6.20485 15.1761 6.38718L15.1989 6.49485C15.2831 6.65041 15.446 6.74929 15.6225 6.75Z" fill="#BBB5D1"/>
<path fill-rule="evenodd" clip-rule="evenodd" d="M9 12C10.6569 12 12 10.6569 12 9C12 7.34315 10.6569 6 9 6C7.34315 6 6 7.34315 6 9C6 10.6569 7.34315 12 9 12Z" fill="#BBB5D1"/>
</svg>
