<svg width="17" height="14" viewBox="0 0 17 14" fill="none" xmlns="http://www.w3.org/2000/svg">
<path opacity="0.3" fill-rule="evenodd" clip-rule="evenodd" d="M1.5 2H6.5C7.32843 2 8 2.67157 8 3.5C8 4.32843 7.32843 5 6.5 5H1.5C0.671573 5 0 4.32843 0 3.5C0 2.67157 0.671573 2 1.5 2ZM10.5 10H15.5C16.3284 10 17 10.6716 17 11.5C17 12.3284 16.3284 13 15.5 13H10.5C9.67157 13 9 12.3284 9 11.5C9 10.6716 9.67157 10 10.5 10Z" fill="#BBB5D1"/>
<path fill-rule="evenodd" clip-rule="evenodd" d="M14 6C12.3431 6 11 4.65685 11 3C11 1.34315 12.3431 0 14 0C15.6569 0 17 1.34315 17 3C17 4.65685 15.6569 6 14 6ZM3 14C1.34315 14 0 12.6569 0 11C0 9.34315 1.34315 8 3 8C4.65685 8 6 9.34315 6 11C6 12.6569 4.65685 14 3 14Z" fill="#BBB5D1"/>
</svg>
