<svg width="20" height="17" viewBox="0 0 20 17" fill="none" xmlns="http://www.w3.org/2000/svg">
<path fill-rule="evenodd" clip-rule="evenodd" d="M20 8.5C20 9.3284 19.3284 10 18.5 10H1.5C0.6716 10 0 9.3284 0 8.5C0 7.6716 0.6716 7 1.5 7H18.5C19.3284 7 20 7.6716 20 8.5Z" fill="white"/>
<path opacity="0.5" d="M15.5 14H4.5C3.67157 14 3 14.6716 3 15.5C3 16.3284 3.67157 17 4.5 17H15.5C16.3284 17 17 16.3284 17 15.5C17 14.6716 16.3284 14 15.5 14Z" fill="white"/>
<path opacity="0.5" d="M12.5 0H7.5C6.67157 0 6 0.671573 6 1.5C6 2.32843 6.67157 3 7.5 3H12.5C13.3284 3 14 2.32843 14 1.5C14 0.671573 13.3284 0 12.5 0Z" fill="white"/>
</svg>
