<svg width="24" height="24" viewBox="0 0 24 24" fill="none" xmlns="http://www.w3.org/2000/svg">
<rect x="24" y="24" width="24" height="24" rx="12" transform="rotate(-180 24 24)" fill="#26A69A" fill-opacity="0.3"/>
<path d="M13 17.1429C13 17.6162 12.5523 18 12 18C11.4477 18 11 17.6162 11 17.1429L11 6.85714C11 6.38376 11.4477 6 12 6C12.5523 6 13 6.38376 13 6.85714L13 17.1429Z" fill="#26A69A"/>
<path d="M7.46323 12.7437C7.1285 13.0854 6.58579 13.0854 6.25105 12.7437C5.91632 12.402 5.91632 11.848 6.25105 11.5063L11.3939 6.25628C11.7184 5.92503 12.2409 5.91344 12.5792 6.22999L17.722 11.0425C18.071 11.369 18.0946 11.9225 17.7747 12.2788C17.4548 12.635 16.9126 12.6591 16.5637 12.3325L12.0258 8.08612L7.46323 12.7437Z" fill="#26A69A"/>
</svg>
