<svg width="24" height="20" viewBox="0 0 24 20" fill="none" xmlns="http://www.w3.org/2000/svg">
<path opacity="0.3" d="M5 14C5 14.5523 5.44772 15 6 15C6.55228 15 7 14.5523 7 14L7 4C7 3.44771 6.55228 3 6 3C5.44772 3 5 3.44771 5 4L5 14Z" fill="white"/>
<path d="M8.29289 12.2929C8.68342 11.9024 9.31658 11.9024 9.70711 12.2929C10.0976 12.6834 10.0976 13.3166 9.70711 13.7071L6.70711 16.7071C6.31658 17.0976 5.68342 17.0976 5.29289 16.7071L2.29289 13.7071C1.90237 13.3166 1.90237 12.6834 2.29289 12.2929C2.68342 11.9024 3.31658 11.9024 3.70711 12.2929L6 14.5858L8.29289 12.2929Z" fill="white"/>
<path opacity="0.3" d="M17 6C17 5.44772 17.4477 5 18 5C18.5523 5 19 5.44772 19 6V16C19 16.5523 18.5523 17 18 17C17.4477 17 17 16.5523 17 16V6Z" fill="white"/>
<path d="M20.2929 7.70711C20.6834 8.09763 21.3166 8.09763 21.7071 7.70711C22.0976 7.31658 22.0976 6.68342 21.7071 6.29289L18.7071 3.29289C18.3166 2.90237 17.6834 2.90237 17.2929 3.29289L14.2929 6.29289C13.9024 6.68342 13.9024 7.31658 14.2929 7.70711C14.6834 8.09763 15.3166 8.09763 15.7071 7.70711L18 5.41421L20.2929 7.70711Z" fill="white"/>
</svg>
