<svg width="16" height="16" viewBox="0 0 16 16" fill="none" xmlns="http://www.w3.org/2000/svg">
<path opacity="0.3" d="M14.8 10.4029C15.4627 10.4029 16 9.86559 16 9.20287C16 8.54015 15.4627 8.00287 14.8 8.00287C14.1373 8.00287 13.6 8.54015 13.6 9.20287C13.6 9.86559 14.1373 10.4029 14.8 10.4029Z" fill="#BBB5D1"/>
<path opacity="0.3" d="M13.4572 0.0418637L1.09339 3.35474C0.666614 3.4691 0.413349 3.90777 0.527702 4.33454L1.56298 8.19825C1.67733 8.62505 2.116 8.87825 2.54277 8.76393L14.9066 5.45105C15.3334 5.33669 15.5866 4.89802 15.4723 4.47125L14.437 0.607544C14.3226 0.180776 13.884 -0.0724939 13.4572 0.0418637Z" fill="#BBB5D1"/>
<path fill-rule="evenodd" clip-rule="evenodd" d="M16 6.67235C15.6363 6.49957 15.2294 6.40289 14.8 6.40289C13.2536 6.40289 12 7.65649 12 9.20289C12 10.7493 13.2536 12.0029 14.8 12.0029C15.2294 12.0029 15.6363 11.9063 16 11.7335V13.6029C16 14.4866 15.2837 15.2029 14.4 15.2029H1.6C0.716344 15.2029 0 14.4866 0 13.6029V4.00289C0 3.11924 0.716344 2.40289 1.6 2.40289H14.4C15.2837 2.40289 16 3.11924 16 4.00289V6.67235Z" fill="#BBB5D1"/>
</svg>
