<!-- by TradingView --><svg width="56" height="56" fill="none" xmlns="http://www.w3.org/2000/svg"><path fill="#1E4D81" d="M0 0h56v56H0z"/><path fill-rule="evenodd" clip-rule="evenodd" d="M20 36H8.283v-2.486l5.77-5.112c2.038-1.865 2.465-2.626 2.465-3.697v-.022c-.011-1.264-.997-2.165-2.399-2.165-1.62 0-2.707.919-2.75 2.312l-.012.17H8.291v-.16c0-2.914 2.466-4.84 5.807-4.84 3.34 0 5.64 1.865 5.64 4.501v.021c0 1.876-.91 3.098-3.636 5.552l-3.308 2.957v.13H20V36Zm13.492 0H21.838v-2.486l5.751-5.112c2.037-1.865 2.464-2.626 2.464-3.697v-.022c-.01-1.264-.996-2.165-2.398-2.165-1.62 0-2.719.919-2.763 2.312l-.01.17h-3.067v-.16c0-2.914 2.478-4.84 5.818-4.84 3.34 0 5.64 1.865 5.64 4.501v.021c0 1.876-.909 3.098-3.636 5.552L26.33 33.03v.13h7.162V36Zm14.225-5.433c0 3.236-2.496 5.433-6.11 5.433-3.439 0-5.717-1.961-5.914-4.544l-.01-.456h3.054l.022.37c.23 1.168 1.337 2.069 2.859 2.069 1.73 0 2.945-1.158 2.945-2.808v-.021c-.01-1.63-1.226-2.776-2.934-2.776-.81 0-1.5.236-2.037.654-.318.235-.57.535-.756.857h-2.88L36.662 20h9.823v2.745h-7.194l-.367 4.446h.065c.658-1.04 1.96-1.672 3.56-1.672 3 0 5.168 2.111 5.168 5.026v.022Z" fill="#fff"/></svg>